<svg width="27" height="27" viewBox="0 0 27 27" fill="none" xmlns="http://www.w3.org/2000/svg">
<rect width="27" height="27" rx="6" fill="#FFFAE7"/>
<path d="M11.32 24.68C10.904 24.68 10.56 24.648 10.288 24.584C10.032 24.52 9.864 24.472 9.784 24.44V21.488C9.864 21.504 9.96 21.52 10.072 21.536C10.2 21.552 10.352 21.56 10.528 21.56C10.832 21.56 11.064 21.448 11.224 21.224C11.384 21.016 11.464 20.728 11.464 20.36V8.264H14.968V20.984C14.968 21.624 14.84 22.224 14.584 22.784C14.344 23.36 13.952 23.816 13.408 24.152C12.88 24.504 12.184 24.68 11.32 24.68ZM11.128 4.568C11.128 3.944 11.312 3.44 11.68 3.056C12.064 2.672 12.568 2.48 13.192 2.48C13.816 2.48 14.312 2.672 14.68 3.056C15.064 3.44 15.256 3.944 15.256 4.568C15.256 5.176 15.064 5.672 14.68 6.056C14.312 6.424 13.816 6.608 13.192 6.608C12.568 6.608 12.064 6.424 11.68 6.056C11.312 5.672 11.128 5.176 11.128 4.568Z" fill="#2A2A2A"/>
</svg>
